<svg id="visual" viewBox="0 0 960 540" width="960" height="540" xmlns="http://www.w3.org/2000/svg" xmlns:xlink="http://www.w3.org/1999/xlink" version="1.1"><rect x="0" y="0" width="960" height="540" fill="#001220"></rect><path d="M0 268L22.8 264C45.7 260 91.3 252 137 249.5C182.7 247 228.3 250 274 256.2C319.7 262.3 365.3 271.7 411.2 271.8C457 272 503 263 548.8 259.2C594.7 255.3 640.3 256.7 686 272.2C731.7 287.7 777.3 317.3 823 317.3C868.7 317.3 914.3 287.7 937.2 272.8L960 258L960 541L937.2 541C914.3 541 868.7 541 823 541C777.3 541 731.7 541 686 541C640.3 541 594.7 541 548.8 541C503 541 457 541 411.2 541C365.3 541 319.7 541 274 541C228.3 541 182.7 541 137 541C91.3 541 45.7 541 22.8 541L0 541Z" fill="#6bc73d"></path><path d="M0 364L22.8 352C45.7 340 91.3 316 137 313.2C182.7 310.3 228.3 328.7 274 335.8C319.7 343 365.3 339 411.2 343.8C457 348.7 503 362.3 548.8 358C594.7 353.7 640.3 331.3 686 315.5C731.7 299.7 777.3 290.3 823 291.2C868.7 292 914.3 303 937.2 308.5L960 314L960 541L937.2 541C914.3 541 868.7 541 823 541C777.3 541 731.7 541 686 541C640.3 541 594.7 541 548.8 541C503 541 457 541 411.2 541C365.3 541 319.7 541 274 541C228.3 541 182.7 541 137 541C91.3 541 45.7 541 22.8 541L0 541Z" fill="#58a62e"></path><path d="M0 408L22.8 408.5C45.7 409 91.3 410 137 402.8C182.7 395.7 228.3 380.3 274 371.7C319.7 363 365.3 361 411.2 368.2C457 375.3 503 391.7 548.8 394.5C594.7 397.3 640.3 386.7 686 384.8C731.7 383 777.3 390 823 388.8C868.7 387.7 914.3 378.3 937.2 373.7L960 369L960 541L937.2 541C914.3 541 868.7 541 823 541C777.3 541 731.7 541 686 541C640.3 541 594.7 541 548.8 541C503 541 457 541 411.2 541C365.3 541 319.7 541 274 541C228.3 541 182.7 541 137 541C91.3 541 45.7 541 22.8 541L0 541Z" fill="#46861f"></path><path d="M0 451L22.8 449.8C45.7 448.7 91.3 446.3 137 444.5C182.7 442.7 228.3 441.3 274 436.8C319.7 432.3 365.3 424.7 411.2 416.7C457 408.7 503 400.3 548.8 398.5C594.7 396.7 640.3 401.3 686 412C731.7 422.7 777.3 439.3 823 445.2C868.7 451 914.3 446 937.2 443.5L960 441L960 541L937.2 541C914.3 541 868.7 541 823 541C777.3 541 731.7 541 686 541C640.3 541 594.7 541 548.8 541C503 541 457 541 411.2 541C365.3 541 319.7 541 274 541C228.3 541 182.7 541 137 541C91.3 541 45.7 541 22.8 541L0 541Z" fill="#346811"></path><path d="M0 480L22.8 477.3C45.7 474.7 91.3 469.3 137 471.5C182.7 473.7 228.3 483.3 274 484.3C319.7 485.3 365.3 477.7 411.2 477.7C457 477.7 503 485.3 548.8 490C594.7 494.7 640.3 496.3 686 490.5C731.7 484.7 777.3 471.3 823 469C868.7 466.7 914.3 475.3 937.2 479.7L960 484L960 541L937.2 541C914.3 541 868.7 541 823 541C777.3 541 731.7 541 686 541C640.3 541 594.7 541 548.8 541C503 541 457 541 411.2 541C365.3 541 319.7 541 274 541C228.3 541 182.7 541 137 541C91.3 541 45.7 541 22.8 541L0 541Z" fill="#224b04"></path></svg>